# xmcd
# 
# Track frame offsets:
#     150
#     14881
#     31354
#     54083
#     77226
#     89178
#     109998
#     114759
#     137067
#     150120
#     159775
#     178201
#     202448
# 
# Disc length: 2990
# 
# Revision: 7
# Processed by: cddbd v1.5.2PL0 Copyright (c) Steve Scherf et al.
# Submitted via: BonkEnc v1.0.8
# 
DISCID=ab0bac0d
DTITLE=padre marcelo rossi - Músicas para Louvasr ao Senhor
DYEAR=0
DGENRE=Gospel
TTITLE0=Padre marcelo rossi - Quero mergulhar nas profundezas
TTITLE1=Padre marcelo rossi - Corsa
TTITLE2=Padre marcelo rossi - Espirito
TTITLE3=Padre marcelo rossi - Basta querer
TTITLE4=Padre marcelo rossi - Senhor, poe teus anjos aqui
TTITLE5=Padre marcelo rossi - Mãe mae mae
TTITLE6=Padre marcelo rossi - Reunidos aqui
TTITLE7=Padre Marcelo Rossi - Anjos de deus
TTITLE8=Padre marcelo rossi - Quem é esta que avança como a aurora
TTITLE9=Padre marcelo rossi - Palmas para jesus
TTITLE10=Padre marcelo rossi - A alegria
TTITLE11=Padre marcelo rossi - Pot pourri
TTITLE12=Padre marcelo rossi - Erguei as mãos
EXTD=
EXTT0=
EXTT1=
EXTT2=
EXTT3=
EXTT4=
EXTT5=
EXTT6=
EXTT7=
EXTT8=
EXTT9=
EXTT10=
EXTT11=
EXTT12=
PLAYORDER=
